<?xml version="1.0" encoding="utf-8"?>
<!-- Generator: Adobe Illustrator 16.0.0, SVG Export Plug-In . SVG Version: 6.00 Build 0)  -->
<!DOCTYPE svg PUBLIC "-//W3C//DTD SVG 1.1//EN" "http://www.w3.org/Graphics/SVG/1.1/DTD/svg11.dtd">
<svg version="1.1" id="Layer_1" xmlns="http://www.w3.org/2000/svg" xmlns:xlink="http://www.w3.org/1999/xlink" x="0px" y="0px"
	 width="73.5px" height="30.255px" viewBox="0 0 73.5 30.255" enable-background="new 0 0 73.5 30.255" xml:space="preserve">
<g>
	<path fill-rule="evenodd" clip-rule="evenodd" d="M69.199,21.711c-0.058,0.035-0.118,0.07-0.25,0.148
		c0.08-0.121,0.12-0.183,0.186-0.282c-0.146-0.083-0.295-0.166-0.515-0.289c-0.029-0.032-0.104-0.162-0.226-0.241
		c-0.97-0.637-2.061-1.071-3.215-1.401c-1.784-0.51-3.618-0.77-5.498-0.78c-0.353-0.002-0.706,0.031-1.06,0.025
		c1.351-0.171,2.7-0.141,4.048,0.038c1.342,0.179,2.637,0.497,3.875,0.979c1.205,0.469,2.284,1.1,3.189,1.903
		c0.046,0.12,0.066,0.253,0.142,0.356c0.491,0.662,0.698,1.384,0.603,2.159c-0.087,0.703-0.597,1.159-1.292,1.476
		c-0.947,0.432-1.982,0.581-3.037,0.634c-0.524,0.026-1.051,0.005-1.669,0.005c0.816-0.098,1.554-0.131,2.256-0.284
		c0.756-0.164,1.52-0.374,2.209-0.682c1.098-0.489,1.449-1.303,1.165-2.343C69.97,22.617,69.74,22.217,69.199,21.711z"/>
	<path fill-rule="evenodd" clip-rule="evenodd" d="M40.316,23.392c2.852-0.267,5.313-1.234,7.457-2.825
		c0.655-0.486,1.298-0.989,1.992-1.433c0.911-0.583,1.58-0.516,2.352,0.205c0.344,0.321,0.63,0.69,0.92,1.05
		c0.066,0.083,0.041,0.22-0.021,0.334c-0.329-0.373-0.63-0.766-0.991-1.115c-0.742-0.715-1.347-0.774-2.219-0.185
		c-0.845,0.571-1.623,1.215-2.468,1.787c-1.685,1.139-3.622,1.788-5.737,2.058c-0.336,0.043-0.673,0.085-1.011,0.123
		C40.499,23.401,40.407,23.392,40.316,23.392z"/>
	<path fill-rule="evenodd" clip-rule="evenodd" d="M52.588,21.999c0.164,0.75,0.661,1.078,1.857,1.194
		c1.044,0.101,2.089,0.195,3.136,0.264c0.851,0.056,1.574,0.342,2.191,0.826c0.915,0.717,1.861,1.386,3.082,1.703
		c-0.021,0.039-0.043,0.077-0.064,0.116c-0.512-0.199-1.046-0.365-1.528-0.606c-0.52-0.259-1.006-0.573-1.48-0.892
		c-0.879-0.591-1.882-0.847-2.979-0.944c-1.028-0.091-2.048-0.252-3.069-0.395c-0.177-0.024-0.35-0.095-0.511-0.167
		C52.667,22.851,52.5,22.551,52.588,21.999z"/>
	<path fill-rule="evenodd" clip-rule="evenodd" d="M54.332,20.401c1.918-0.428,3.75-0.836,5.59-1.246
		C59.442,19.499,55.382,20.415,54.332,20.401z"/>
	<path fill-rule="evenodd" clip-rule="evenodd" d="M60.583,20.995c0.162-0.465,0.323-0.929,0.508-1.461
		c0.377,0.476,0.712,0.898,1.047,1.32c-0.023,0.016-0.048,0.033-0.072,0.049c-0.256-0.229-0.513-0.459-0.792-0.71
		c-0.213,0.291-0.413,0.561-0.611,0.832C60.637,21.015,60.61,21.005,60.583,20.995z"/>
	<path fill-rule="evenodd" clip-rule="evenodd" d="M65.608,19.113c-0.196-0.269-0.392-0.536-0.617-0.846
		c-0.242,0.227-0.465,0.436-0.688,0.645c-0.019-0.009-0.037-0.019-0.055-0.027c0.224-0.37,0.447-0.741,0.708-1.172
		c0.256,0.499,0.482,0.937,0.708,1.375C65.645,19.096,65.627,19.104,65.608,19.113z"/>
	<path fill-rule="evenodd" clip-rule="evenodd" d="M57.765,19.194c-0.852-0.138-1.561,0.047-2.166,0.53
		C55.704,19.192,57.034,18.809,57.765,19.194z"/>
	<path fill-rule="evenodd" clip-rule="evenodd" d="M62.463,22.92c0.224-0.572,0.739-0.866,1.46-0.836
		C63.316,22.213,62.781,22.43,62.463,22.92z"/>
	<path fill-rule="evenodd" clip-rule="evenodd" d="M65.776,24.105c-0.622,0.229-1.245,0.459-1.868,0.688
		c-0.01-0.02-0.021-0.039-0.03-0.059c0.62-0.235,1.239-0.47,1.858-0.706C65.75,24.055,65.763,24.08,65.776,24.105z"/>
	<path fill-rule="evenodd" clip-rule="evenodd" d="M66.649,24.965c0.738,0.025,1.428-0.04,1.914-0.664
		C68.4,24.854,67.627,25.111,66.649,24.965z"/>
	<path fill-rule="evenodd" clip-rule="evenodd" d="M65.604,21.001c0.33-0.337,0.778-0.455,1.243-0.381
		C66.463,20.737,66.028,20.871,65.604,21.001z"/>
	<path fill-rule="evenodd" clip-rule="evenodd" d="M65.946,23.709c-0.516,0.099-1.032,0.199-1.549,0.298
		c-0.006-0.024-0.012-0.048-0.019-0.073c0.523-0.102,1.045-0.204,1.567-0.306C65.946,23.655,65.946,23.682,65.946,23.709z"/>
</g>
<path fill="none" d="M-37.363,40.814c9.618,0.76,30.139,33.16,33.528,0.632C-1.087,15.069,11.83,17.027,11.83,17.027
	C78.612,38.006,95.102,0.798,78.612,38.006"/>
<text transform="matrix(1.0094 -0.3793 0.3517 0.9361 6.4756 18.207)" font-family="'MyriadPro-BoldIt'" font-size="6">k</text>
<text transform="matrix(1.0783 -0.005 0.0047 1 9.3931 17.0029)" font-family="'MyriadPro-BoldIt'" font-size="6">o</text>
<text transform="matrix(1.035 0.3027 -0.2807 0.9598 12.6299 17.2979)" font-family="'MyriadPro-BoldIt'" font-size="6">m</text>
<text transform="matrix(1.0427 0.275 -0.2551 0.9669 17.7847 18.7939)" font-family="'MyriadPro-BoldIt'" font-size="6">p</text>
<text transform="matrix(1.0471 0.2579 -0.2391 0.971 21.2817 19.7085)" font-family="'MyriadPro-BoldIt'" font-size="6">i</text>
<text transform="matrix(1.0513 0.2401 -0.2226 0.9749 22.9287 20.1235)" font-family="'MyriadPro-BoldIt'" font-size="6">u</text>
<text transform="matrix(1.0558 0.2196 -0.2036 0.979 26.458 20.9224)" font-family="'MyriadPro-BoldIt'" font-size="6">t</text>
<text transform="matrix(1.0597 0.1998 -0.1853 0.9827 28.6313 21.3789)" font-family="'MyriadPro-BoldIt'" font-size="6">e</text>
<text transform="matrix(1.0634 0.1787 -0.1657 0.9862 31.8003 21.9727)" font-family="'MyriadPro-BoldIt'" font-size="6">r</text>
<text transform="matrix(1.066 0.1626 -0.1508 0.9886 34.1606 22.3672)" font-family="'MyriadPro-BoldIt'" font-size="6">i</text>
<text transform="matrix(1.069 0.1415 -0.1312 0.9914 35.833 22.6318)" font-family="'MyriadPro-BoldIt'" font-size="6">a</text>
<text transform="matrix(1.0717 0.1194 -0.1107 0.9938 39.3784 23.0918)" font-family="'MyriadPro-BoldIt'" font-size="6">i</text>
<path fill="none" d="M-30.063,34.618c7.911,0.76,24.79,33.159,27.578,0.632c2.26-26.377,12.884-24.419,12.884-24.419
	C65.33,31.81,78.894-5.398,65.33,31.81"/>
<text transform="matrix(0.8189 -0.3407 0.3841 0.9233 5.916 11.9854)" font-family="'MyriadPro-BoldIt'" font-size="6">N</text>
<text transform="matrix(0.8856 0.049 -0.0553 0.9985 8.8052 10.731)" font-family="'MyriadPro-BoldIt'" font-size="6">e</text>
<text transform="matrix(0.8328 0.3052 -0.3441 0.9389 11.1133 11.105)" font-family="'MyriadPro-BoldIt'" font-size="6">r</text>
<text transform="matrix(0.8383 0.2898 -0.3268 0.9451 12.9351 11.7769)" font-family="'MyriadPro-BoldIt'" font-size="6">e</text>
<text transform="matrix(0.8448 0.2701 -0.3046 0.9525 15.4341 12.6431)" font-family="'MyriadPro-BoldIt'" font-size="6">a</text>
<text transform="matrix(0.8498 0.2541 -0.2865 0.9581 18.2197 13.5264)" font-family="'MyriadPro-BoldIt'" font-size="6">l</text>
<text transform="matrix(0.8547 0.2371 -0.2673 0.9636 19.564 13.937)" font-family="'MyriadPro-BoldIt'" font-size="6">ū</text>
<text transform="matrix(0.8602 0.2162 -0.2438 0.9698 22.4048 14.7207)" font-family="'MyriadPro-BoldIt'" font-size="6">s</text>
<text transform="matrix(0.8635 0.2028 -0.2287 0.9735 24.5361 15.251)" font-family="'MyriadPro-BoldIt'" font-size="6"> </text>
</svg>
